<?xml version="1.0" encoding="UTF-8"?>
<svg width="39px" height="36px" viewBox="0 0 39 36" version="1.1" xmlns="http://www.w3.org/2000/svg" xmlns:xlink="http://www.w3.org/1999/xlink">
    <!-- Generator: Sketch 44.1 (41455) - http://www.bohemiancoding.com/sketch -->
    <title>Shape</title>
    <desc>Created with Sketch.</desc>
    <defs></defs>
    <g id="Symbols" stroke="none" stroke-width="1" fill="none" fill-rule="evenodd">
        <g id="hounddog" fill-rule="nonzero" fill="#2EC798">
            <path d="M38.0178978,17.8358844 C37.9284785,17.3831532 37.6602204,17.1115145 37.4813817,16.6587833 C37.1237042,15.8438672 36.8554461,15.1194973 36.4083493,14.3951274 C36.3189299,14.1234887 36.2295105,13.9423962 36.0506718,13.6707575 C35.603575,12.9463876 35.0670588,12.2220177 34.4411232,11.6787403 C33.8151877,11.2260091 33.0104134,10.9543704 32.2056391,10.5921855 C31.5797036,10.3205468 30.953768,10.0489081 30.1489937,9.77726935 C28.7182839,9.4150844 26.6616385,9.4150844 25.1415093,9.68672311 C24.7838318,9.68672311 24.4261544,9.77726935 24.1578963,9.77726935 C23.1742833,9.95836182 22.1906702,10.0489081 21.2964766,10.2300005 C20.670541,10.3205468 20.1340249,10.411093 19.5080893,10.5016392 C18.7927344,10.5921855 17.8091214,10.8638242 17.0043471,10.6827317 C16.3784115,10.5921855 15.8418953,10.3205468 15.3053791,10.1394543 C14.768863,9.95836182 14.1429274,10.2300005 13.8746693,9.68672311 C13.5169919,9.59617687 13.069895,9.77726935 12.9804757,9.4150844 C12.8016369,9.32453816 12.5333788,9.4150844 12.2651207,9.32453816 C12.1757014,9.14344569 12.2651207,8.87180698 12.1757014,8.6907145 C12.086282,8.50962203 11.7286046,8.60016827 11.6391852,8.50962203 C11.6391852,8.50962203 11.3709271,7.87579837 11.2815077,7.78525213 C11.0132496,7.06088224 10.9238303,6.33651235 10.7449915,5.52159621 C10.6555722,5.06886503 10.4767334,4.61613384 10.2978947,4.2539489 C10.119056,3.98231019 10.0296366,3.71067148 9.85079789,3.529579 C9.85079789,3.529579 9.67195916,3.16739405 9.67195916,2.89575534 C9.58253979,2.44302416 9.58253979,2.26193169 9.40370106,1.99029298 C8.95660424,1.35646932 6.98937821,0.632099423 5.82692647,0.632099423 C5.37982964,0.632099423 5.02215218,0.72264566 4.57505536,0.72264566 C4.30679726,0.813191896 4.30679726,1.26592308 4.03853917,1.35646932 C3.59144234,1.62810803 2.25015187,1.35646932 1.80305504,1.26592308 C1.35595822,1.17537684 0.372345205,0.99428437 0.193506475,1.44701555 C0.193506475,1.62810803 0.10408711,1.71865427 0.10408711,1.89974674 C0.10408711,2.08083921 0.10408711,2.26193169 0.10408711,2.44302416 C-0.343009714,3.98231019 0.730022665,4.43504137 1.80305504,4.88777256 C2.07131314,4.97831879 2.33957123,5.2499575 2.60782933,5.34050374 C3.14434552,5.52159621 3.77028107,5.43104998 4.2173779,5.70268869 C4.93273282,6.15541987 5.20099091,7.42306719 5.37982964,8.41907579 C5.55866837,9.50563064 5.46924901,10.5016392 5.64808774,11.4071016 C5.82692647,12.4031102 6.27402329,13.2180263 6.36344266,14.214035 C6.36344266,14.3951274 6.27402329,14.5762199 6.27402329,14.6667661 C6.27402329,14.9384048 6.18460393,15.1194973 6.18460393,15.391136 C6.0057652,16.0249597 5.7375071,16.0249597 6.0057652,16.8398758 C6.18460393,17.3831532 6.36344266,17.9264307 6.63170075,18.4697081 C6.81053948,18.7413468 6.98937821,18.9224393 7.16821694,19.194078 C7.61531376,19.9184479 7.88357186,20.6428178 8.33066868,21.3671877 C8.42008805,21.5482801 8.59892678,21.8199188 8.68834614,22.0010113 C9.0460236,22.8159275 8.95660424,23.7213898 9.13544297,24.7173984 C9.40370106,26.075592 9.49312043,27.4337855 9.49312043,28.9730716 C9.49312043,29.3352565 9.49312043,29.7879877 9.58253979,30.1501726 C9.58253979,30.4218114 9.67195916,30.6934501 9.67195916,30.9650888 C9.58253979,31.41782 9.49312043,32.3232823 9.22486233,32.5043748 C8.95660424,32.6854673 8.59892678,32.594921 8.33066868,32.6854673 C8.33066868,32.6854673 8.33066868,32.6854673 8.33066868,32.6854673 C8.24124932,32.7760135 8.15182995,32.8665597 8.06241059,33.0476522 C7.79415249,33.2287447 7.61531376,33.5003834 7.34705567,33.6814759 C7.2576363,33.7720221 7.2576363,33.8625684 7.2576363,33.9531146 C7.43647503,34.0436608 7.43647503,33.9531146 7.61531376,33.9531146 C7.70473313,33.9531146 7.79415249,34.0436608 7.88357186,34.0436608 C7.79415249,34.496392 6.89995885,34.6774845 6.89995885,35.3113081 C6.89995885,35.3113081 6.89995885,35.3113081 6.89995885,35.3113081 C7.5258944,35.4924006 10.2978947,35.4924006 10.5661528,34.9491232 C10.5661528,34.6774845 10.5661528,34.4058458 10.5661528,34.1342071 C10.6555722,33.6814759 10.7449915,33.1381985 10.8344109,32.594921 C10.9238303,32.4138286 11.102669,32.0516436 11.1920884,31.9610974 C11.3709271,31.8705511 11.6391852,31.9610974 11.6391852,31.6894587 C11.7286046,31.5083662 11.6391852,31.3272737 11.5497658,31.1461812 C11.5497658,30.9650888 11.6391852,30.6934501 11.6391852,30.5123576 C11.6391852,30.3312651 11.5497658,30.2407189 11.5497658,30.1501726 C11.4603465,29.8785339 11.5497658,29.6068952 11.4603465,29.3352565 C11.4603465,29.0636178 11.4603465,28.8825253 11.4603465,28.6108866 C11.4603465,27.614878 11.5497658,26.6188694 11.6391852,25.8039533 C11.6391852,25.4417683 11.6391852,24.9890371 11.6391852,24.6268522 C11.7286046,24.0835748 11.8180239,23.4497511 11.9968626,22.9970199 C12.086282,22.7253812 11.9968626,22.4537425 12.086282,22.1821038 C13.069895,22.4537425 14.2323468,22.1821038 15.1265404,21.9104651 C15.5736372,21.8199188 16.0207341,21.7293726 16.3784115,21.6388264 C16.8255084,21.4577339 17.2726052,21.2766414 17.719702,21.095549 C17.9879601,21.0050027 18.2562182,20.9144565 18.5244763,20.8239102 C18.703315,20.8239102 18.7927344,21.095549 18.9715731,20.9144565 C19.0609925,20.8239102 18.9715731,20.6428178 18.9715731,20.5522715 C19.5080893,20.1900866 20.5811217,19.8279016 21.2964766,19.5562629 C21.385896,19.5562629 21.5647347,19.5562629 21.6541541,19.5562629 C21.7435734,19.4657167 21.8329928,19.3751705 21.9224122,19.2846242 C22.369509,19.1035317 22.7271864,18.9224393 23.1742833,18.6508006 C23.353122,18.5602543 23.6213801,18.4697081 23.8002188,18.3791618 C23.8896382,18.3791618 23.9790575,18.3791618 24.0684769,18.3791618 C24.336735,18.1980694 25.8568642,17.4736995 26.2145417,17.4736995 C27.8240902,17.7453382 28.5394452,19.1035317 29.2548001,20.2806328 C29.3442194,20.4617253 29.4336388,20.733364 29.5230582,20.9144565 C29.970155,21.6388264 30.4172518,22.5442887 31.0431874,23.1781124 C32.3844779,24.536306 33.9046071,25.8039533 34.2622845,28.0676092 C34.3517039,28.7014329 34.1728651,30.3312651 33.9940264,30.6029038 C33.8151877,30.8745425 33.3680909,30.8745425 33.0998328,31.055635 C33.0998328,31.055635 33.0998328,31.055635 33.0998328,31.055635 C33.0104134,31.1461812 33.0104134,31.2367275 33.0104134,31.3272737 C32.920994,31.5083662 32.6527359,31.6894587 32.5633166,31.8705511 C32.5633166,31.8705511 32.5633166,31.9610974 32.5633166,31.9610974 C32.6527359,32.0516436 32.7421553,31.9610974 32.8315747,31.9610974 C32.8315747,32.0516436 32.920994,32.1421899 33.0104134,32.1421899 C33.1892521,32.2327361 34.3517039,32.3232823 34.5305426,32.2327361 C34.7093813,32.2327361 34.7093813,32.0516436 34.7988007,31.9610974 C34.9776394,31.8705511 35.0670588,31.9610974 35.2458975,31.8705511 C35.6929944,31.5083662 35.2458975,31.1461812 35.3353169,30.7839963 C35.4247363,30.1501726 35.6929944,29.4258027 35.7824137,28.7014329 C35.9612524,28.7919791 35.9612524,29.6068952 35.9612524,29.9690802 C35.9612524,30.2407189 35.7824137,32.1421899 35.603575,32.3232823 C35.4247363,32.594921 34.8882201,32.7760135 34.619962,32.8665597 C34.5305426,32.957106 34.5305426,33.1381985 34.5305426,33.3192909 C34.4411232,33.6814759 34.0834458,33.8625684 34.0834458,34.2247533 C34.3517039,34.4058458 36.4977686,34.496392 36.8554461,34.2247533 C37.0342848,34.0436608 36.9448655,33.7720221 37.0342848,33.4098372 C37.0342848,33.3192909 37.1237042,33.3192909 37.1237042,33.3192909 C37.1237042,33.2287447 37.0342848,32.957106 37.1237042,32.7760135 C37.2131236,32.3232823 37.3025429,31.7800049 37.3919623,31.3272737 C37.3919623,31.1461812 37.3919623,30.9650888 37.3919623,30.7839963 C37.4813817,30.3312651 37.570801,29.9690802 37.6602204,29.516349 C37.6602204,29.3352565 37.6602204,29.0636178 37.7496397,28.8825253 C37.8390591,28.5203404 38.1967366,27.4337855 38.1073172,26.8905081 C38.0178978,26.4377769 37.570801,26.1661382 37.3025429,25.8944995 C37.1237042,25.713407 36.9448655,25.5323146 36.8554461,25.2606758 C36.6766074,25.0795834 36.587188,24.9890371 36.4083493,24.8079447 C35.603575,23.8119361 35.1564782,22.9064737 34.7988007,21.4577339 C34.7093813,21.1860952 34.7988007,20.8239102 34.7988007,20.5522715 C34.7093813,19.9184479 34.5305426,19.4657167 34.619962,18.7413468 C34.7093813,18.0169769 34.7988007,17.3831532 34.9776394,16.6587833 C35.0670588,16.3871446 35.2458975,16.1155059 35.2458975,15.6627747 C35.3353169,14.9384048 34.9776394,14.1234887 34.7988007,13.6707575 C34.7988007,13.6707575 34.7988007,13.5802113 34.7988007,13.5802113 C34.7988007,13.5802113 34.7988007,13.5802113 34.7988007,13.5802113 C35.1564782,13.85185 35.3353169,14.4856737 35.603575,14.9384048 C36.3189299,16.1155059 36.9448655,17.8358844 38.2861559,18.3791618 C38.2861559,18.3791618 38.2861559,18.3791618 38.2861559,18.3791618 C38.3755753,18.1980694 38.1967366,18.1075231 38.1967366,17.9264307 C37.9284785,18.1075231 38.1073172,18.0169769 38.0178978,17.8358844 Z" id="Shape" transform="translate(19.155597, 18.025857) scale(-1, 1) translate(-19.155597, -18.025857) "></path>
        </g>
    </g>
</svg>