<?xml version="1.0" encoding="UTF-8"?>
<svg width="178px" height="40px" viewBox="0 0 178 40" version="1.1" xmlns="http://www.w3.org/2000/svg" xmlns:xlink="http://www.w3.org/1999/xlink">
    <!-- Generator: Sketch 44.1 (41455) - http://www.bohemiancoding.com/sketch -->
    <title>LadyBird</title>
    <desc>Created with Sketch.</desc>
    <defs>
        <linearGradient x1="0%" y1="0%" x2="60.8412821%" y2="50%" id="linearGradient-1">
            <stop stop-color="#53A92C" offset="0%"></stop>
            <stop stop-color="#2EC798" offset="100%"></stop>
        </linearGradient>
    </defs>
    <g id="Symbols" stroke="none" stroke-width="1" fill="none" fill-rule="evenodd">
        <g id="LadyBird" fill="url(#linearGradient-1)">
            <path d="M23.31,30 L0.883,30 C0.52766489,30 0.35,29.8360016 0.35,29.508 L0.35,27.417 C0.35,27.0889984 0.52766489,26.925 0.883,26.925 L3.999,26.925 L3.999,3.637 L0.883,3.637 C0.52766489,3.637 0.35,3.47300164 0.35,3.145 L0.35,1.054 C0.35,0.72599836 0.52766489,0.562 0.883,0.562 L10.682,0.562 C11.0373351,0.562 11.215,0.73966489 11.215,1.095 L11.215,3.104 C11.215,3.45933511 11.0373351,3.637 10.682,3.637 L7.566,3.637 L7.566,26.925 L20.604,26.925 L20.604,22.907 C20.604,22.5789984 20.7816649,22.415 21.137,22.415 L23.351,22.415 C23.6790016,22.415 23.843,22.5789984 23.843,22.907 L23.843,29.467 C23.843,29.8223351 23.6653351,30 23.31,30 Z M47.541,30 L43.974,30 C42.7986608,30 42.211,29.4260057 42.211,28.278 L42.211,26.187 L42.129,26.187 C40.1336567,28.9476805 37.4686833,30.328 34.134,30.328 C32.1659902,30.328 30.5533396,29.8155051 29.296,28.7905 C28.0386604,27.7654949 27.41,26.3783421 27.41,24.629 C27.41,22.3876555 28.3871569,20.7408386 30.3415,19.6885 C32.2958431,18.6361614 34.9813163,18.11 38.398,18.11 L41.842,18.11 L41.842,17.618 C41.842,14.2013163 40.0653511,12.493 36.512,12.493 C34.8446583,12.493 33.6420037,12.6501651 32.904,12.9645 C32.1659963,13.2788349 31.6398349,13.5316657 31.3255,13.723 C31.0111651,13.9143343 30.7720008,14.0646661 30.608,14.174 C30.197998,14.5020016 29.8973343,14.5293347 29.706,14.256 L28.558,12.821 C28.3666657,12.6023322 28.3939988,12.3836678 28.64,12.165 C29.104669,11.5636637 30.0613261,10.9760029 31.51,10.402 C32.9586739,9.82799713 34.6669902,9.541 36.635,9.541 C42.3750287,9.541 45.245,12.274306 45.245,17.741 L45.245,27.253 L47.541,27.253 C47.8690016,27.253 48.033,27.4169984 48.033,27.745 L48.033,29.508 C48.033,29.8360016 47.8690016,30 47.541,30 Z M41.842,20.57 L38.603,20.57 C37.0176587,20.57 35.7056719,20.6519992 34.667,20.816 C33.6283281,20.9800008 32.746837,21.3353306 32.0225,21.882 C31.298163,22.4286694 30.936,23.1803286 30.936,24.137 C30.936,25.0936715 31.3254961,25.8794969 32.1045,26.4945 C32.8835039,27.1095031 33.9016604,27.417 35.159,27.417 C37.8103466,27.417 40.037991,26.2416784 41.842,23.891 L41.842,20.57 Z M71.772,30 L68.205,30 C67.5763302,30 67.1185014,29.870168 66.8315,29.6105 C66.5444986,29.350832 66.401,28.9066698 66.401,28.278 L66.401,25.982 L66.36,25.982 C65.9226645,27.1300057 65.1026727,28.1344957 63.9,28.9955 C62.6973273,29.8565043 61.2350086,30.287 59.513,30.287 C56.779653,30.287 54.5588419,29.3303429 52.8505,27.417 C51.1421581,25.5036571 50.288,22.9958488 50.288,19.8935 C50.288,16.7911512 51.1421581,14.2901762 52.8505,12.3905 C54.5588419,10.4908238 56.7933195,9.541 59.554,9.541 C61.2486751,9.541 62.6563277,9.93049611 63.777,10.7095 C64.8976723,11.4885039 65.7039975,12.4383277 66.196,13.559 L66.237,13.559 C66.2096665,13.0123306 66.196,12.5613351 66.196,12.206 L66.196,3.309 L63.9,3.309 C63.5446649,3.309 63.367,3.14500164 63.367,2.817 L63.367,1.054 C63.367,0.72599836 63.5446649,0.562 63.9,0.562 L68.984,0.562 C69.3120016,0.562 69.476,0.72599836 69.476,1.054 L69.476,27.253 L71.772,27.253 C72.1000016,27.253 72.264,27.4169984 72.264,27.745 L72.264,29.508 C72.264,29.8360016 72.1000016,30 71.772,30 Z M55.4335,25.326 C56.6225059,26.720007 58.1326575,27.417 59.964,27.417 C61.7953425,27.417 63.2986608,26.7268402 64.474,25.3465 C65.6493392,23.9661598 66.237,22.1280115 66.237,19.832 C66.237,17.5359885 65.6356727,15.7251733 64.433,14.3995 C63.2303273,13.0738267 61.7406755,12.411 59.964,12.411 C58.1873244,12.411 56.6908394,13.08066 55.4745,14.42 C54.2581606,15.75934 53.65,17.563322 53.65,19.832 C53.65,22.100678 54.2444941,23.931993 55.4335,25.326 Z M83.744,29.549 C83.3066645,29.549 82.9513347,29.2073368 82.678,28.524 L76.405,12.575 L74.15,12.575 C73.8219984,12.575 73.658,12.4110016 73.658,12.083 L73.658,10.32 C73.658,9.99199836 73.8219984,9.828 74.15,9.828 L81.571,9.828 C81.9263351,9.828 82.104,9.99199836 82.104,10.32 L82.104,12.083 C82.104,12.4110016 81.9263351,12.575 81.571,12.575 L79.89,12.575 L85.179,26.474 L85.261,26.474 L90.181,12.575 L88.336,12.575 C88.0079984,12.575 87.844,12.4110016 87.844,12.083 L87.844,10.32 C87.844,9.99199836 88.0079984,9.828 88.336,9.828 L95.962,9.828 C96.2900016,9.828 96.454,9.99199836 96.454,10.32 L96.454,12.083 C96.454,12.4110016 96.2900016,12.575 95.962,12.575 L93.666,12.575 L86.368,32.624 C85.4659955,35.0566788 84.5298382,36.8264945 83.5595,37.9335 C82.5891618,39.0405055 81.2635084,39.594 79.5825,39.594 C77.9014916,39.594 76.4596727,39.0610053 75.257,37.995 C74.9836653,37.7216653 74.9426657,37.4756678 75.134,37.257 L76.159,35.945 C76.4050012,35.7536657 76.6509988,35.7399992 76.897,35.904 C77.5530033,36.4233359 78.3319955,36.683 79.234,36.683 C80.1360045,36.683 80.8808304,36.3755031 81.4685,35.7605 C82.0561696,35.1454969 82.6233306,34.0863409 83.17,32.583 L84.277,29.549 L83.744,29.549 Z M112.731,30 L99.488,30 C99.1326649,30 98.955,29.8360016 98.955,29.508 L98.955,27.417 C98.955,27.0889984 99.1326649,26.925 99.488,26.925 L102.604,26.925 L102.604,3.637 L99.488,3.637 C99.1326649,3.637 98.955,3.47300164 98.955,3.145 L98.955,1.054 C98.955,0.72599836 99.1326649,0.562 99.488,0.562 L112.69,0.562 C115.423347,0.562 117.548492,1.28632609 119.0655,2.735 C120.582508,4.18367391 121.341,6.08332158 121.341,8.434 C121.341,11.1946805 120.124679,13.2583265 117.692,14.625 C121.190684,15.6363384 122.94,17.9596485 122.94,21.595 C122.94,24.1643462 122.085842,26.2074924 120.3775,27.7245 C118.669158,29.2415076 116.12035,30 112.731,30 Z M106.171,26.925 L112.444,26.925 C114.603344,26.925 116.291161,26.4671712 117.5075,25.5515 C118.723839,24.6358288 119.332,23.2213429 119.332,21.308 C119.332,17.8913163 117.118022,16.183 112.69,16.183 L106.171,16.183 L106.171,26.925 Z M106.171,13.477 L112.444,13.477 C113.86534,13.4496665 115.102161,13.0396706 116.1545,12.247 C117.206839,11.4543294 117.733,10.2106751 117.733,8.516 C117.733,6.82132486 117.179506,5.5845039 116.0725,4.8055 C114.965494,4.02649611 113.605675,3.637 111.993,3.637 L106.171,3.637 L106.171,13.477 Z M134.83,30 L126.999,30 C126.643665,30 126.466,29.8360016 126.466,29.508 L126.466,27.745 C126.466,27.4169984 126.643665,27.253 126.999,27.253 L129.254,27.253 L129.254,12.575 L126.999,12.575 C126.643665,12.575 126.466,12.4110016 126.466,12.083 L126.466,10.32 C126.466,9.99199836 126.643665,9.828 126.999,9.828 L132.165,9.828 C132.493002,9.828 132.657,9.99199836 132.657,10.32 L132.657,27.253 L134.83,27.253 C135.185335,27.253 135.363,27.4169984 135.363,27.745 L135.363,29.508 C135.363,29.8360016 135.185335,30 134.83,30 Z M133.19,5.4 C133.19,6.02866981 132.964502,6.56166448 132.5135,6.999 C132.062498,7.43633552 131.52267,7.655 130.894,7.655 C130.26533,7.655 129.725502,7.43633552 129.2745,6.999 C128.823498,6.56166448 128.598,6.02866981 128.598,5.4 C128.598,4.77133019 128.823498,4.22466899 129.2745,3.76 C129.725502,3.29533101 130.26533,3.063 130.894,3.063 C131.52267,3.063 132.062498,3.29533101 132.5135,3.76 C132.964502,4.22466899 133.19,4.77133019 133.19,5.4 Z M146.843,30 L139.012,30 C138.656665,30 138.479,29.8360016 138.479,29.508 L138.479,27.745 C138.479,27.4169984 138.656665,27.253 139.012,27.253 L141.267,27.253 L141.267,12.575 L139.012,12.575 C138.656665,12.575 138.479,12.4110016 138.479,12.083 L138.479,10.32 C138.479,9.99199836 138.656665,9.828 139.012,9.828 L143.809,9.828 C144.164335,9.828 144.342,9.99199836 144.342,10.32 L144.342,15.445 L144.465,15.445 C144.547,15.0076645 144.833998,14.4063372 145.326,13.641 C145.818002,12.8756628 146.35783,12.2401692 146.9455,11.7345 C147.53317,11.2288308 148.380494,10.7710021 149.4875,10.361 C150.594506,9.95099795 151.844993,9.746 153.239,9.746 C153.594335,9.746 153.772,9.92366489 153.772,10.279 L153.772,12.452 C153.772,12.8073351 153.594335,12.985 153.239,12.985 L152.378,12.985 C150.027322,12.985 148.155007,13.7366592 146.761,15.24 C145.366993,16.7433409 144.67,18.4516571 144.67,20.365 L144.67,27.253 L146.843,27.253 C147.198335,27.253 147.376,27.4169984 147.376,27.745 L147.376,29.508 C147.376,29.8360016 147.198335,30 146.843,30 Z M176.568,30 L173.001,30 C172.37233,30 171.914501,29.870168 171.6275,29.6105 C171.340499,29.350832 171.197,28.9066698 171.197,28.278 L171.197,25.982 L171.156,25.982 C170.718664,27.1300057 169.898673,28.1344957 168.696,28.9955 C167.493327,29.8565043 166.031009,30.287 164.309,30.287 C161.575653,30.287 159.354842,29.3303429 157.6465,27.417 C155.938158,25.5036571 155.084,22.9958488 155.084,19.8935 C155.084,16.7911512 155.938158,14.2901762 157.6465,12.3905 C159.354842,10.4908238 161.58932,9.541 164.35,9.541 C166.044675,9.541 167.452328,9.93049611 168.573,10.7095 C169.693672,11.4885039 170.499998,12.4383277 170.992,13.559 L171.033,13.559 C171.005667,13.0123306 170.992,12.5613351 170.992,12.206 L170.992,3.309 L168.696,3.309 C168.340665,3.309 168.163,3.14500164 168.163,2.817 L168.163,1.054 C168.163,0.72599836 168.340665,0.562 168.696,0.562 L173.78,0.562 C174.108002,0.562 174.272,0.72599836 174.272,1.054 L174.272,27.253 L176.568,27.253 C176.896002,27.253 177.06,27.4169984 177.06,27.745 L177.06,29.508 C177.06,29.8360016 176.896002,30 176.568,30 Z M160.2295,25.326 C161.418506,26.720007 162.928658,27.417 164.76,27.417 C166.591342,27.417 168.094661,26.7268402 169.27,25.3465 C170.445339,23.9661598 171.033,22.1280115 171.033,19.832 C171.033,17.5359885 170.431673,15.7251733 169.229,14.3995 C168.026327,13.0738267 166.536676,12.411 164.76,12.411 C162.983324,12.411 161.486839,13.08066 160.2705,14.42 C159.054161,15.75934 158.446,17.563322 158.446,19.832 C158.446,22.100678 159.040494,23.931993 160.2295,25.326 Z"></path>
        </g>
    </g>
</svg>